<?xml version="1.0" standalone="no"?>
<!DOCTYPE svg PUBLIC "-//W3C//DTD SVG 20010904//EN"
 "http://www.w3.org/TR/2001/REC-SVG-20010904/DTD/svg10.dtd">
<svg version="1.0" xmlns="http://www.w3.org/2000/svg"
 width="1034.000000pt" height="1034.000000pt" viewBox="0 0 1034.000000 1034.000000"
 preserveAspectRatio="xMidYMid meet">
<metadata>
Created by potrace 1.14, written by Peter Selinger 2001-2017
</metadata>
<g transform="translate(0.000000,1034.000000) scale(0.100000,-0.100000)"
fill="#000000" stroke="none">
<path d="M2941 9141 c-12 -16 -21 -42 -21 -57 0 -53 -52 -249 -71 -267 -11
-10 -19 -26 -19 -35 0 -21 -45 -196 -66 -260 -9 -24 -17 -52 -19 -61 -2 -9
-20 -77 -40 -151 -20 -74 -38 -143 -40 -153 -2 -9 -6 -21 -9 -25 -3 -5 -7 -19
-10 -33 -5 -20 -17 -70 -31 -129 -3 -8 -11 -41 -20 -74 -9 -32 -14 -60 -11
-63 3 -3 -1 -17 -8 -32 -21 -40 -71 -225 -111 -406 -2 -11 -16 -60 -31 -110
-19 -64 -27 -117 -29 -185 -1 -52 -6 -111 -10 -130 -12 -58 -11 -103 3 -108
13 -4 102 82 102 99 0 5 16 33 35 63 19 30 35 59 35 64 0 17 47 52 63 47 20
-8 23 -18 26 -85 2 -30 4 -56 6 -58 2 -2 12 2 24 10 17 11 23 10 37 -4 9 -9
18 -30 20 -48 2 -17 6 -35 9 -40 3 -5 8 -28 11 -52 3 -24 12 -70 21 -103 17
-69 21 -87 29 -135 8 -44 54 -160 64 -160 12 0 61 -107 76 -168 18 -72 18 -70
33 -114 11 -34 10 -40 -13 -75 -14 -21 -26 -44 -26 -53 0 -8 -9 -26 -20 -40
-11 -14 -20 -34 -20 -46 0 -11 -9 -29 -20 -39 -20 -18 -22 -18 -73 8 -48 24
-58 26 -162 23 -79 -3 -119 -9 -143 -21 -54 -28 -82 -59 -82 -92 0 -16 -5 -34
-11 -40 -12 -12 -20 -83 -9 -83 4 0 6 -26 5 -57 -3 -59 11 -127 23 -119 7 4
32 -19 33 -31 1 -5 3 -13 6 -19 2 -6 -10 -49 -28 -95 -23 -59 -33 -102 -34
-144 -2 -75 -29 -164 -69 -224 -30 -44 -33 -46 -74 -43 -24 2 -60 12 -80 22
-97 50 -310 73 -337 37 -6 -9 -23 -19 -37 -22 -31 -8 -118 -92 -118 -115 0 -9
-12 -30 -26 -45 -54 -59 -74 -101 -90 -190 -2 -16 -8 -39 -11 -50 -7 -24 -12
-55 -18 -120 -9 -107 -16 -118 -95 -152 -52 -24 -234 -114 -292 -145 -15 -8
-26 -17 -23 -20 3 -2 -7 -11 -21 -19 -26 -13 -26 -15 -21 -99 3 -47 6 -86 6
-87 1 -1 9 0 18 4 10 3 15 3 11 -2 -4 -4 -4 -13 1 -19 5 -6 11 -29 14 -51 7
-45 18 -112 22 -135 2 -8 4 -23 4 -32 1 -10 9 -18 19 -19 13 0 12 -2 -5 -9
-13 -5 -23 -12 -23 -15 0 -4 6 -3 13 0 6 4 3 0 -7 -9 -10 -8 -24 -12 -30 -9
-6 4 -6 0 1 -9 11 -12 9 -17 -12 -26 -14 -6 -25 -20 -25 -29 0 -14 -2 -15 -9
-5 -6 10 -14 5 -32 -17 -13 -17 -27 -31 -32 -31 -9 0 -58 -42 -113 -97 -23
-24 -45 -43 -49 -43 -3 0 -26 -19 -51 -42 -31 -29 -44 -48 -40 -61 3 -12 -11
-33 -40 -63 -24 -25 -44 -50 -44 -54 0 -5 -4 -10 -8 -12 -15 -6 -158 -215
-219 -318 -96 -166 -150 -263 -157 -288 -4 -12 -28 -59 -53 -103 -43 -77 -58
-114 -68 -170 -9 -51 -57 -186 -87 -244 -17 -33 -46 -95 -64 -138 l-34 -79 0
-344 0 -344 4204 0 c4003 0 4205 1 4201 18 -10 55 -115 403 -135 447 -11 25
-39 115 -44 141 -2 10 -9 37 -14 59 -6 22 -13 54 -15 70 -3 17 -8 41 -11 55
-10 43 -17 83 -21 129 -3 24 -7 51 -9 60 -3 9 -8 32 -11 51 -26 164 -61 243
-148 340 -75 82 -148 170 -203 245 -32 44 -78 100 -100 125 -23 25 -84 97
-135 160 -51 63 -97 120 -103 126 -6 6 -29 33 -51 59 -22 27 -49 58 -60 69
-12 12 -24 29 -28 39 -4 11 -12 15 -19 11 -8 -5 -9 -2 -5 9 4 10 0 18 -11 21
-9 3 -30 27 -47 53 -24 40 -68 103 -102 148 -74 96 -77 106 -59 169 13 45 14
141 2 153 -6 7 25 117 35 124 5 3 11 20 12 37 1 18 5 32 9 32 4 0 12 16 19 35
7 19 16 35 20 35 9 0 42 80 64 155 18 58 104 269 144 351 11 22 38 62 60 89
65 79 84 127 83 217 0 43 -5 85 -10 94 -23 42 78 234 124 234 22 1 54 23 54
38 0 6 4 12 9 14 8 3 198 237 246 303 11 15 26 33 32 40 24 25 63 109 58 124
-4 15 -12 57 -21 111 -10 64 -1 366 12 379 2 2 31 -3 64 -12 60 -15 61 -15 74
7 28 44 70 265 66 350 0 16 8 45 19 66 29 56 17 182 -34 350 -24 79 -112 372
-130 435 -58 197 -77 262 -89 295 -8 19 -35 100 -61 180 -62 186 -69 203 -136
335 -95 184 -104 200 -110 205 -7 6 -86 134 -106 171 -7 15 -20 32 -28 39 -8
7 -15 19 -15 26 0 8 -4 14 -10 14 -5 0 -10 4 -10 10 0 8 -66 117 -87 145 -5 6
-17 30 -28 55 -11 24 -37 71 -57 102 l-38 58 -2179 0 -2180 0 -20 -29z m-1535
-5027 c34 -35 28 -83 -12 -98 -20 -8 -64 37 -64 65 0 22 24 52 34 42 3 -4 6
-1 6 5 0 18 11 14 36 -14z"/>
</g>
</svg>
