<?xml version="1.0" standalone="no"?>
<!DOCTYPE svg PUBLIC "-//W3C//DTD SVG 20010904//EN"
 "http://www.w3.org/TR/2001/REC-SVG-20010904/DTD/svg10.dtd">
<svg version="1.0" xmlns="http://www.w3.org/2000/svg"
 width="593.000000pt" height="593.000000pt" viewBox="0 0 593.000000 593.000000"
 preserveAspectRatio="xMidYMid meet">
<metadata>
Created by potrace 1.14, written by Peter Selinger 2001-2017
</metadata>
<g transform="translate(0.000000,593.000000) scale(0.100000,-0.100000)"
fill="#000000" stroke="none">
<path d="M974 5911 c-118 -40 -195 -108 -247 -219 l-32 -67 -3 -2656 c-1
-1890 1 -2666 9 -2690 42 -131 127 -220 252 -262 46 -15 195 -18 252 -4 106
26 170 53 290 122 233 136 372 178 575 178 146 0 285 -34 441 -107 89 -41 222
-82 300 -90 64 -8 219 -9 240 -2 8 3 31 8 52 11 74 10 132 28 222 67 281 124
431 146 688 103 108 -18 203 -58 372 -155 185 -107 305 -142 465 -136 72 3 97
8 152 34 83 40 153 109 192 192 l31 65 2 2635 c2 1894 0 2646 -8 2675 -37 135
-129 240 -259 295 -76 32 -204 36 -325 11 -95 -20 -140 -36 -270 -97 -44 -20
-82 -37 -85 -37 -3 0 -25 -11 -50 -23 -47 -24 -171 -61 -230 -70 -19 -2 -45
-7 -58 -10 -40 -8 -195 -6 -262 5 -113 19 -104 16 -330 98 -188 69 -265 84
-416 84 -153 1 -248 -20 -444 -96 -193 -76 -297 -96 -459 -91 -142 5 -283 37
-396 90 -104 49 -289 126 -326 136 -74 20 -81 21 -184 25 -76 3 -112 0 -151
-14z"/>
</g>
</svg>
