<?xml version="1.0" standalone="no"?>
<!DOCTYPE svg PUBLIC "-//W3C//DTD SVG 20010904//EN"
 "http://www.w3.org/TR/2001/REC-SVG-20010904/DTD/svg10.dtd">
<svg version="1.0" xmlns="http://www.w3.org/2000/svg"
 width="500.000000pt" height="500.000000pt" viewBox="0 0 500.000000 500.000000"
 preserveAspectRatio="xMidYMid meet">
<metadata>
Created by potrace 1.14, written by Peter Selinger 2001-2017
</metadata>
<g transform="translate(0.000000,500.000000) scale(0.100000,-0.100000)"
fill="#000000" stroke="none">
<path d="M133 4976 c-57 -27 -106 -84 -124 -145 -7 -25 -9 -775 -7 -2352 l3
-2316 30 -49 c19 -30 49 -60 79 -79 l49 -30 2337 0 2337 0 49 30 c30 19 60 49
79 79 l30 49 0 2337 0 2337 -30 49 c-19 30 -49 60 -79 79 l-49 30 -2326 2
-2326 3 -52 -24z"/>
</g>
</svg>
